<svg width="525" height="103" viewBox="0 0 525 103" fill="none" xmlns="http://www.w3.org/2000/svg">
<path d="M7.03125 26.1875C6.9375 26.1875 6.84375 26.1875 6.75 26.1875C5.15625 26.3281 3.91406 26.2812 3.02344 26.0469C2.17969 25.7656 1.54688 24.9688 1.125 23.6562C0.75 22.2969 0.46875 20.4688 0.28125 18.1719C0.09375 15.8281 0.0703125 13.4375 0.210938 11C0.351562 8.5625 0.679688 6.5 1.19531 4.8125C1.75781 3.125 2.55469 2.28125 3.58594 2.28125C28.7109 0.96875 54.0703 0.96875 79.6641 2.28125C80.6953 2.28125 81.4688 3.10156 81.9844 4.74219C82.5469 6.38281 82.8984 8.375 83.0391 10.7188C83.2266 13.0625 83.2266 15.3828 83.0391 17.6797C82.8984 19.9297 82.6406 21.7578 82.2656 23.1641C81.8438 24.7109 81.1641 25.6484 80.2266 25.9766C79.3359 26.3047 78.0469 26.3984 76.3594 26.2578C75.9844 26.2578 75.5859 26.2344 75.1641 26.1875C74.0391 26.1406 72.9609 26.1172 71.9297 26.1172C66.7266 25.9297 61.2422 25.7891 55.4766 25.6953C55.5234 32.6797 55.5469 39.6875 55.5469 46.7188C55.6875 66.3125 55.6641 83.9609 55.4766 99.6641C55.3359 100.836 54.0938 101.656 51.75 102.125C49.4062 102.641 46.6641 102.875 43.5234 102.828C40.4297 102.781 37.6875 102.523 35.2969 102.055C32.9062 101.633 31.5703 101.094 31.2891 100.438C29.6016 91.2969 28.5469 79.8594 28.125 66.125C27.7031 52.3438 28.0078 38.8438 29.0391 25.625C22.3828 25.6719 15.8672 25.8359 9.49219 26.1172C8.69531 26.1641 7.875 26.1875 7.03125 26.1875ZM5.34375 6.64062C4.73438 8.84375 4.5 11.1641 4.64062 13.6016C4.82812 15.9922 5.20312 18.0547 5.76562 19.7891C6.32812 21.5234 6.91406 22.5078 7.52344 22.7422C8.13281 22.9766 8.57812 22.0391 8.85938 19.9297C9.23438 17.1172 9.67969 15.4297 10.1953 14.8672C10.7109 14.2578 11.2734 14.375 11.8828 15.2188C12.4922 16.0625 13.1484 17.1875 13.8516 18.5938C14.5078 20 15.2109 21.2656 15.9609 22.3906C16.7109 23.5156 17.4844 24.1719 18.2812 24.3594C19.0781 24.5 19.6641 24.1484 20.0391 23.3047C20.4609 22.4609 20.3906 20.9844 19.8281 18.875C18.75 14.3281 18.75 11.6562 19.8281 10.8594C20.9062 10.0625 22.0781 11.6562 23.3438 15.6406C24.0469 18.2656 24.9375 20.2344 26.0156 21.5469C27.1406 22.8125 28.1484 23.3047 29.0391 23.0234C29.9297 22.7422 30.375 21.5234 30.375 19.3672C30.375 16.9766 30.6797 15.3828 31.2891 14.5859C31.9453 13.7891 32.5312 13.8828 33.0469 14.8672C33.6094 15.8047 33.7969 17.7266 33.6094 20.6328C32.9062 31.0391 32.5547 41.3984 32.5547 51.7109C32.5547 54.3828 32.5781 57.0547 32.625 59.7266C32.625 59.7734 32.625 59.8203 32.625 59.8672V59.7969C32.7188 58.625 32.8828 57.4062 33.1172 56.1406C33.3984 54.875 33.7266 53.7734 34.1016 52.8359C34.5234 51.8984 35.0391 51.4297 35.6484 51.4297C36.1172 51.4297 36.4219 51.9453 36.5625 52.9766C36.75 53.9609 36.8203 55.1562 36.7734 56.5625C36.7734 57.9688 36.7266 59.2812 36.6328 60.5C36.5391 61.7188 36.4453 62.6094 36.3516 63.1719C36.3516 63.3125 36.3516 63.4062 36.3516 63.4531C36.1172 67.4844 36.5391 70.2266 37.6172 71.6797C38.7422 73.0859 39.8438 73.1094 40.9219 71.75C42.0469 70.3438 42.4688 67.4375 42.1875 63.0312C42.1406 62.6562 42.0469 61.9062 41.9062 60.7812C41.5312 58.4844 41.1562 55.5312 40.7812 51.9219C40.4062 48.3125 40.3125 45.0547 40.5 42.1484C40.6875 39.2422 41.4609 37.6953 42.8203 37.5078C44.0859 37.6016 44.7656 38.8672 44.8594 41.3047C44.9531 43.6953 44.8594 46.5078 44.5781 49.7422C44.3906 51.9453 44.2734 54.0547 44.2266 56.0703C44.1797 58.0859 44.3203 59.75 44.6484 61.0625C45.0234 62.375 45.7031 63.0312 46.6875 63.0312C47.8125 63.0312 48.6562 62.3047 49.2188 60.8516C49.8281 59.3984 50.2266 57.6406 50.4141 55.5781C50.6016 53.4688 50.6719 51.3828 50.625 49.3203C50.625 47.2578 50.6016 45.5469 50.5547 44.1875C50.5547 43.625 50.5312 43.1797 50.4844 42.8516C50.4844 42.6172 50.4375 41.8906 50.3438 40.6719C50.1562 38.9375 49.9688 36.6641 49.7812 33.8516C49.5938 31.0391 49.4766 28.25 49.4297 25.4844C49.4297 22.6719 49.5938 20.4453 49.9219 18.8047C50.2969 17.1172 50.9766 16.5313 51.9609 17.0469C52.3359 17.3281 52.5703 17.75 52.6641 18.3125C52.8047 18.8281 52.9219 19.4141 53.0156 20.0703C53.0625 20.8203 53.1562 21.5 53.2969 22.1094C53.4375 22.6719 53.7422 23.0234 54.2109 23.1641C55.1484 23.3984 55.9219 22.8594 56.5312 21.5469C57.1406 20.1875 57.2812 18.2188 56.9531 15.6406C56.6719 13.0156 57.0234 11.8438 58.0078 12.125C58.9922 12.4062 59.8594 14.2578 60.6094 17.6797C61.4062 21.1484 62.4375 23.2344 63.7031 23.9375C64.9688 24.6406 65.6484 23.8438 65.7422 21.5469C65.7422 19.9063 65.6016 18.3359 65.3203 16.8359C65.1797 16.1328 65.0859 15.4766 65.0391 14.8672C64.8984 13.0391 65.1328 11.9375 65.7422 11.5625C66.3984 11.1406 67.0547 11.9141 67.7109 13.8828C67.9922 15.0078 68.2969 16.2266 68.625 17.5391C68.7188 18.0547 68.8359 18.5938 68.9766 19.1562C70.1484 23.2344 71.3438 24.7812 72.5625 23.7969C73.8281 22.8125 74.2969 20.0937 73.9688 15.6406C73.875 14.375 74.1328 13.7891 74.7422 13.8828C75.3516 13.9766 76.0078 14.5859 76.7109 15.7109C77.4609 16.8359 78 18.3125 78.3281 20.1406C78.6094 17.7031 78.75 15.5469 78.75 13.6719C78.7031 12.875 78.6328 11.7734 78.5391 10.3672C78.4453 8.96094 78.2578 7.71875 77.9766 6.64062C53.7422 5.42188 29.5312 5.42188 5.34375 6.64062ZM131.836 102.195C131.414 102.242 130.992 102.266 130.57 102.266C127.852 102.5 126.047 102.312 125.156 101.703C124.312 101.141 123.586 99.3828 122.977 96.4297C121.477 89.9609 120.141 84.1484 118.969 78.9922H99.4219C98.0156 85.5547 96.6562 92.3516 95.3438 99.3828C95.1094 100.93 94.7109 101.867 94.1484 102.195C93.6328 102.523 92.5547 102.641 90.9141 102.547C90.8203 102.547 90.7031 102.547 90.5625 102.547H84.0938C81.75 102.547 80.2734 102.289 79.6641 101.773C79.0547 101.305 78.8672 100.016 79.1016 97.9062C79.5234 91.2031 80.7656 81.5469 82.8281 68.9375C84.9375 56.2812 87.5156 43.9062 90.5625 31.8125C93.6094 19.6719 96.75 11 99.9844 5.79688C102.234 3.03125 105.609 1.53125 110.109 1.29688C114.609 1.01562 118.195 1.92969 120.867 4.03906C124.195 7.46094 127.547 14.9609 130.922 26.5391C134.297 38.1172 137.273 50.7031 139.852 64.2969C142.43 77.8906 144.188 89.4219 145.125 98.8906C145.312 100.156 144.914 100.953 143.93 101.281C142.945 101.609 141.047 101.82 138.234 101.914C138.094 101.914 137.953 101.914 137.812 101.914L131.836 102.195ZM120.234 51.5703C120.328 48.1484 120.703 45.125 121.359 42.5C122.016 39.875 123 38.2812 124.312 37.7188C125.625 37.1562 127.242 38.2109 129.164 40.8828C127.805 35.4922 126.328 30.125 124.734 24.7812C124.312 23.5156 123.68 21.7344 122.836 19.4375C122.039 17.1406 121.125 14.9141 120.094 12.7578C119.109 10.5547 118.172 9.00781 117.281 8.11719C116.391 7.41406 115.055 6.96875 113.273 6.78125C111.539 6.59375 109.805 6.6875 108.07 7.0625C106.383 7.39063 105.188 8.02344 104.484 8.96094C103.031 11.1172 101.742 13.8359 100.617 17.1172C99.4922 20.3516 98.5781 23.2344 97.875 25.7656C96.75 29.6094 95.7188 33.5 94.7812 37.4375C95.1562 37.1562 95.6016 36.8984 96.1172 36.6641C96.6797 36.3828 97.1953 36.3359 97.6641 36.5234C98.1797 36.7109 98.5312 37.3203 98.7188 38.3516C98.9062 39.3359 98.8359 40.9766 98.5078 43.2734C98.2266 45.5234 97.5469 48.5938 96.4688 52.4844C95.5781 56.0469 95.5547 58.8359 96.3984 60.8516C97.2891 62.8203 98.4844 63.7578 99.9844 63.6641C101.438 63.4297 102.516 62.1172 103.219 59.7266C103.969 57.2891 104.578 54.5938 105.047 51.6406C105.469 49.0625 105.938 46.8828 106.453 45.1016C106.969 43.2734 107.695 42.3828 108.633 42.4297C109.055 42.4766 109.43 42.6172 109.758 42.8516C110.086 43.0859 110.391 43.5547 110.672 44.2578C110.953 44.9609 111.258 46.0625 111.586 47.5625C112.992 53.3281 114.703 56.6797 116.719 57.6172C118.781 58.5078 119.953 56.4922 120.234 51.5703ZM144.281 26.1875C144.188 26.1875 144.094 26.1875 144 26.1875C142.406 26.3281 141.164 26.2812 140.273 26.0469C139.43 25.7656 138.797 24.9688 138.375 23.6562C138 22.2969 137.719 20.4688 137.531 18.1719C137.344 15.8281 137.32 13.4375 137.461 11C137.602 8.5625 137.93 6.5 138.445 4.8125C139.008 3.125 139.805 2.28125 140.836 2.28125C165.961 0.96875 191.32 0.96875 216.914 2.28125C217.945 2.28125 218.719 3.10156 219.234 4.74219C219.797 6.38281 220.148 8.375 220.289 10.7188C220.477 13.0625 220.477 15.3828 220.289 17.6797C220.148 19.9297 219.891 21.7578 219.516 23.1641C219.094 24.7109 218.414 25.6484 217.477 25.9766C216.586 26.3047 215.297 26.3984 213.609 26.2578C213.234 26.2578 212.836 26.2344 212.414 26.1875C211.289 26.1406 210.211 26.1172 209.18 26.1172C203.977 25.9297 198.492 25.7891 192.727 25.6953C192.773 32.6797 192.797 39.6875 192.797 46.7188C192.938 66.3125 192.914 83.9609 192.727 99.6641C192.586 100.836 191.344 101.656 189 102.125C186.656 102.641 183.914 102.875 180.773 102.828C177.68 102.781 174.938 102.523 172.547 102.055C170.156 101.633 168.82 101.094 168.539 100.438C166.852 91.2969 165.797 79.8594 165.375 66.125C164.953 52.3438 165.258 38.8438 166.289 25.625C159.633 25.6719 153.117 25.8359 146.742 26.1172C145.945 26.1641 145.125 26.1875 144.281 26.1875ZM142.594 6.64062C141.984 8.84375 141.75 11.1641 141.891 13.6016C142.078 15.9922 142.453 18.0547 143.016 19.7891C143.578 21.5234 144.164 22.5078 144.773 22.7422C145.383 22.9766 145.828 22.0391 146.109 19.9297C146.484 17.1172 146.93 15.4297 147.445 14.8672C147.961 14.2578 148.523 14.375 149.133 15.2188C149.742 16.0625 150.398 17.1875 151.102 18.5938C151.758 20 152.461 21.2656 153.211 22.3906C153.961 23.5156 154.734 24.1719 155.531 24.3594C156.328 24.5 156.914 24.1484 157.289 23.3047C157.711 22.4609 157.641 20.9844 157.078 18.875C156 14.3281 156 11.6562 157.078 10.8594C158.156 10.0625 159.328 11.6562 160.594 15.6406C161.297 18.2656 162.188 20.2344 163.266 21.5469C164.391 22.8125 165.398 23.3047 166.289 23.0234C167.18 22.7422 167.625 21.5234 167.625 19.3672C167.625 16.9766 167.93 15.3828 168.539 14.5859C169.195 13.7891 169.781 13.8828 170.297 14.8672C170.859 15.8047 171.047 17.7266 170.859 20.6328C170.156 31.0391 169.805 41.3984 169.805 51.7109C169.805 54.3828 169.828 57.0547 169.875 59.7266C169.875 59.7734 169.875 59.8203 169.875 59.8672V59.7969C169.969 58.625 170.133 57.4062 170.367 56.1406C170.648 54.875 170.977 53.7734 171.352 52.8359C171.773 51.8984 172.289 51.4297 172.898 51.4297C173.367 51.4297 173.672 51.9453 173.812 52.9766C174 53.9609 174.07 55.1562 174.023 56.5625C174.023 57.9688 173.977 59.2812 173.883 60.5C173.789 61.7188 173.695 62.6094 173.602 63.1719C173.602 63.3125 173.602 63.4062 173.602 63.4531C173.367 67.4844 173.789 70.2266 174.867 71.6797C175.992 73.0859 177.094 73.1094 178.172 71.75C179.297 70.3438 179.719 67.4375 179.438 63.0312C179.391 62.6562 179.297 61.9062 179.156 60.7812C178.781 58.4844 178.406 55.5312 178.031 51.9219C177.656 48.3125 177.562 45.0547 177.75 42.1484C177.938 39.2422 178.711 37.6953 180.07 37.5078C181.336 37.6016 182.016 38.8672 182.109 41.3047C182.203 43.6953 182.109 46.5078 181.828 49.7422C181.641 51.9453 181.523 54.0547 181.477 56.0703C181.43 58.0859 181.57 59.75 181.898 61.0625C182.273 62.375 182.953 63.0312 183.938 63.0312C185.062 63.0312 185.906 62.3047 186.469 60.8516C187.078 59.3984 187.477 57.6406 187.664 55.5781C187.852 53.4688 187.922 51.3828 187.875 49.3203C187.875 47.2578 187.852 45.5469 187.805 44.1875C187.805 43.625 187.781 43.1797 187.734 42.8516C187.734 42.6172 187.688 41.8906 187.594 40.6719C187.406 38.9375 187.219 36.6641 187.031 33.8516C186.844 31.0391 186.727 28.25 186.68 25.4844C186.68 22.6719 186.844 20.4453 187.172 18.8047C187.547 17.1172 188.227 16.5313 189.211 17.0469C189.586 17.3281 189.82 17.75 189.914 18.3125C190.055 18.8281 190.172 19.4141 190.266 20.0703C190.312 20.8203 190.406 21.5 190.547 22.1094C190.688 22.6719 190.992 23.0234 191.461 23.1641C192.398 23.3984 193.172 22.8594 193.781 21.5469C194.391 20.1875 194.531 18.2188 194.203 15.6406C193.922 13.0156 194.273 11.8438 195.258 12.125C196.242 12.4062 197.109 14.2578 197.859 17.6797C198.656 21.1484 199.688 23.2344 200.953 23.9375C202.219 24.6406 202.898 23.8438 202.992 21.5469C202.992 19.9063 202.852 18.3359 202.57 16.8359C202.43 16.1328 202.336 15.4766 202.289 14.8672C202.148 13.0391 202.383 11.9375 202.992 11.5625C203.648 11.1406 204.305 11.9141 204.961 13.8828C205.242 15.0078 205.547 16.2266 205.875 17.5391C205.969 18.0547 206.086 18.5938 206.227 19.1562C207.398 23.2344 208.594 24.7812 209.812 23.7969C211.078 22.8125 211.547 20.0937 211.219 15.6406C211.125 14.375 211.383 13.7891 211.992 13.8828C212.602 13.9766 213.258 14.5859 213.961 15.7109C214.711 16.8359 215.25 18.3125 215.578 20.1406C215.859 17.7031 216 15.5469 216 13.6719C215.953 12.875 215.883 11.7734 215.789 10.3672C215.695 8.96094 215.508 7.71875 215.227 6.64062C190.992 5.42188 166.781 5.42188 142.594 6.64062ZM234.844 26.1875C234.75 26.1875 234.656 26.1875 234.562 26.1875C232.969 26.3281 231.727 26.2812 230.836 26.0469C229.992 25.7656 229.359 24.9688 228.938 23.6562C228.562 22.2969 228.281 20.4688 228.094 18.1719C227.906 15.8281 227.883 13.4375 228.023 11C228.164 8.5625 228.492 6.5 229.008 4.8125C229.57 3.125 230.367 2.28125 231.398 2.28125C256.523 0.96875 281.883 0.96875 307.477 2.28125C308.508 2.28125 309.281 3.10156 309.797 4.74219C310.359 6.38281 310.711 8.375 310.852 10.7188C311.039 13.0625 311.039 15.3828 310.852 17.6797C310.711 19.9297 310.453 21.7578 310.078 23.1641C309.656 24.7109 308.977 25.6484 308.039 25.9766C307.148 26.3047 305.859 26.3984 304.172 26.2578C303.797 26.2578 303.398 26.2344 302.977 26.1875C301.852 26.1406 300.773 26.1172 299.742 26.1172C294.539 25.9297 289.055 25.7891 283.289 25.6953C283.336 32.6797 283.359 39.6875 283.359 46.7188C283.5 66.3125 283.477 83.9609 283.289 99.6641C283.148 100.836 281.906 101.656 279.562 102.125C277.219 102.641 274.477 102.875 271.336 102.828C268.242 102.781 265.5 102.523 263.109 102.055C260.719 101.633 259.383 101.094 259.102 100.438C257.414 91.2969 256.359 79.8594 255.938 66.125C255.516 52.3438 255.82 38.8438 256.852 25.625C250.195 25.6719 243.68 25.8359 237.305 26.1172C236.508 26.1641 235.688 26.1875 234.844 26.1875ZM233.156 6.64062C232.547 8.84375 232.312 11.1641 232.453 13.6016C232.641 15.9922 233.016 18.0547 233.578 19.7891C234.141 21.5234 234.727 22.5078 235.336 22.7422C235.945 22.9766 236.391 22.0391 236.672 19.9297C237.047 17.1172 237.492 15.4297 238.008 14.8672C238.523 14.2578 239.086 14.375 239.695 15.2188C240.305 16.0625 240.961 17.1875 241.664 18.5938C242.32 20 243.023 21.2656 243.773 22.3906C244.523 23.5156 245.297 24.1719 246.094 24.3594C246.891 24.5 247.477 24.1484 247.852 23.3047C248.273 22.4609 248.203 20.9844 247.641 18.875C246.562 14.3281 246.562 11.6562 247.641 10.8594C248.719 10.0625 249.891 11.6562 251.156 15.6406C251.859 18.2656 252.75 20.2344 253.828 21.5469C254.953 22.8125 255.961 23.3047 256.852 23.0234C257.742 22.7422 258.188 21.5234 258.188 19.3672C258.188 16.9766 258.492 15.3828 259.102 14.5859C259.758 13.7891 260.344 13.8828 260.859 14.8672C261.422 15.8047 261.609 17.7266 261.422 20.6328C260.719 31.0391 260.367 41.3984 260.367 51.7109C260.367 54.3828 260.391 57.0547 260.438 59.7266C260.438 59.7734 260.438 59.8203 260.438 59.8672V59.7969C260.531 58.625 260.695 57.4062 260.93 56.1406C261.211 54.875 261.539 53.7734 261.914 52.8359C262.336 51.8984 262.852 51.4297 263.461 51.4297C263.93 51.4297 264.234 51.9453 264.375 52.9766C264.562 53.9609 264.633 55.1562 264.586 56.5625C264.586 57.9688 264.539 59.2812 264.445 60.5C264.352 61.7188 264.258 62.6094 264.164 63.1719C264.164 63.3125 264.164 63.4062 264.164 63.4531C263.93 67.4844 264.352 70.2266 265.43 71.6797C266.555 73.0859 267.656 73.1094 268.734 71.75C269.859 70.3438 270.281 67.4375 270 63.0312C269.953 62.6562 269.859 61.9062 269.719 60.7812C269.344 58.4844 268.969 55.5312 268.594 51.9219C268.219 48.3125 268.125 45.0547 268.312 42.1484C268.5 39.2422 269.273 37.6953 270.633 37.5078C271.898 37.6016 272.578 38.8672 272.672 41.3047C272.766 43.6953 272.672 46.5078 272.391 49.7422C272.203 51.9453 272.086 54.0547 272.039 56.0703C271.992 58.0859 272.133 59.75 272.461 61.0625C272.836 62.375 273.516 63.0312 274.5 63.0312C275.625 63.0312 276.469 62.3047 277.031 60.8516C277.641 59.3984 278.039 57.6406 278.227 55.5781C278.414 53.4688 278.484 51.3828 278.438 49.3203C278.438 47.2578 278.414 45.5469 278.367 44.1875C278.367 43.625 278.344 43.1797 278.297 42.8516C278.297 42.6172 278.25 41.8906 278.156 40.6719C277.969 38.9375 277.781 36.6641 277.594 33.8516C277.406 31.0391 277.289 28.25 277.242 25.4844C277.242 22.6719 277.406 20.4453 277.734 18.8047C278.109 17.1172 278.789 16.5313 279.773 17.0469C280.148 17.3281 280.383 17.75 280.477 18.3125C280.617 18.8281 280.734 19.4141 280.828 20.0703C280.875 20.8203 280.969 21.5 281.109 22.1094C281.25 22.6719 281.555 23.0234 282.023 23.1641C282.961 23.3984 283.734 22.8594 284.344 21.5469C284.953 20.1875 285.094 18.2188 284.766 15.6406C284.484 13.0156 284.836 11.8438 285.82 12.125C286.805 12.4062 287.672 14.2578 288.422 17.6797C289.219 21.1484 290.25 23.2344 291.516 23.9375C292.781 24.6406 293.461 23.8438 293.555 21.5469C293.555 19.9063 293.414 18.3359 293.133 16.8359C292.992 16.1328 292.898 15.4766 292.852 14.8672C292.711 13.0391 292.945 11.9375 293.555 11.5625C294.211 11.1406 294.867 11.9141 295.523 13.8828C295.805 15.0078 296.109 16.2266 296.438 17.5391C296.531 18.0547 296.648 18.5938 296.789 19.1562C297.961 23.2344 299.156 24.7812 300.375 23.7969C301.641 22.8125 302.109 20.0937 301.781 15.6406C301.688 14.375 301.945 13.7891 302.555 13.8828C303.164 13.9766 303.82 14.5859 304.523 15.7109C305.273 16.8359 305.812 18.3125 306.141 20.1406C306.422 17.7031 306.562 15.5469 306.562 13.6719C306.516 12.875 306.445 11.7734 306.352 10.3672C306.258 8.96094 306.07 7.71875 305.789 6.64062C281.555 5.42188 257.344 5.42188 233.156 6.64062ZM346.219 102.336C339.844 102.195 334.875 101.258 331.312 99.5234C327.75 97.7422 325.031 95 323.156 91.2969C321.328 87.5938 319.828 82.8125 318.656 76.9531C315 58.8594 314.977 40.6719 318.586 22.3906C319.945 15.5469 322.148 10.5547 325.195 7.41406C328.289 4.27344 332.836 2.32813 338.836 1.57812C346.664 0.453125 354.469 0.148438 362.25 0.664062C363.422 0.804688 364.289 1.76563 364.852 3.54688C365.461 5.32812 365.766 7.4375 365.766 9.875C365.766 11.7969 365.484 13.625 364.922 15.3594C364.406 17.0469 363.516 17.9609 362.25 18.1016C361.031 18.1484 360.023 18.1484 359.227 18.1016C358.617 18.0547 357.984 18.0547 357.328 18.1016C356.719 18.1016 355.992 18.125 355.148 18.1719C351.305 18.6406 348.516 20.3281 346.781 23.2344C345.094 26.1406 344.062 29.75 343.688 34.0625C343.312 38.3281 343.125 42.7109 343.125 47.2109C350.906 46.8828 356.695 46.8125 360.492 47C361.617 47.1875 362.391 48.1484 362.812 49.8828C363.234 51.5703 363.445 53.6797 363.445 56.2109C363.492 58.1797 363.328 59.7734 362.953 60.9922C362.625 62.1641 361.828 62.7734 360.562 62.8203C358.828 62.8672 357.211 62.8906 355.711 62.8906C351.164 62.9375 346.852 63.1016 342.773 63.3828C342.82 64.0859 342.844 64.8828 342.844 65.7734C342.844 68.4453 342.984 71.4922 343.266 74.9141C343.594 78.2891 344.273 81.2656 345.305 83.8438C346.336 86.375 348 87.6641 350.297 87.7109C352.312 87.6641 354.539 87.5469 356.977 87.3594C359.086 87.1719 361.055 87.0547 362.883 87.0078C364.102 87.1016 364.992 88.0391 365.555 89.8203C366.117 91.5547 366.422 93.4297 366.469 95.4453C366.422 99.1484 365.836 101.094 364.711 101.281C361.992 101.797 358.922 102.125 355.5 102.266C352.078 102.406 348.984 102.43 346.219 102.336ZM324.352 51.0781C325.242 51.4531 325.758 52.4375 325.898 54.0312C326.086 55.625 326.109 57.4766 325.969 59.5859C325.922 61.2734 325.922 62.9141 325.969 64.5078C326.062 66.0547 326.344 67.3672 326.812 68.4453C327.328 69.4766 328.219 69.9922 329.484 69.9922C331.734 69.7578 332.695 67.9062 332.367 64.4375C332.086 60.9688 331.383 57.0312 330.258 52.625C329.414 49.1562 328.805 46.0391 328.43 43.2734C328.055 40.5078 328.336 38.7031 329.273 37.8594C329.883 37.4844 330.375 37.8594 330.75 38.9844C331.172 40.1094 331.547 41.5391 331.875 43.2734C332.203 44.6797 332.531 46.0156 332.859 47.2812C333.234 48.5469 333.68 49.4844 334.195 50.0938C334.711 50.7031 335.344 50.7031 336.094 50.0938C337.078 49.1094 337.406 47.3516 337.078 44.8203C336.75 42.2422 336.234 39.5 335.531 36.5938C334.5 32.5625 334.031 29.4219 334.125 27.1719C334.406 25.4844 334.969 24.5703 335.812 24.4297C336.703 24.2422 337.547 24.6641 338.344 25.6953C339.188 26.6797 339.633 28.1328 339.68 30.0547C340.289 26.2578 341.719 22.7656 343.969 19.5781C346.219 16.3438 349.828 14.3984 354.797 13.7422C356.25 13.6016 357.68 13.5781 359.086 13.6719C359.695 13.6719 360.281 13.6719 360.844 13.6719C360.984 13.0625 361.078 12.4062 361.125 11.7031C361.219 10.9531 361.266 10.3438 361.266 9.875C361.266 9.40625 361.219 8.67969 361.125 7.69531C361.078 6.66406 360.938 5.77344 360.703 5.02344C353.625 4.64844 346.57 4.97656 339.539 6.00781C334.008 6.75781 330.094 8.49219 327.797 11.2109C325.547 13.8828 323.93 17.9141 322.945 23.3047C320.695 34.1797 319.922 45.5469 320.625 57.4062C320.766 55.2969 321.234 53.6797 322.031 52.5547C322.828 51.3828 323.602 50.8906 324.352 51.0781ZM398.883 99.6641C398.742 100.883 397.57 101.727 395.367 102.195C393.164 102.711 390.609 102.922 387.703 102.828C384.797 102.734 382.219 102.453 379.969 101.984C377.766 101.562 376.547 101.047 376.312 100.438C374.109 88.1094 372.961 71.8906 372.867 51.7812C372.82 31.625 373.969 15.3594 376.312 2.98438C376.547 2.32813 377.625 1.8125 379.547 1.4375C381.469 1.0625 383.719 0.851563 386.297 0.804688C388.875 0.710938 391.242 0.757812 393.398 0.945312C395.602 1.13281 397.078 1.46094 397.828 1.92969C409.078 0.570313 418.242 1.97656 425.32 6.14844C432.398 10.3203 437.484 16.0625 440.578 23.375C443.672 30.6875 444.891 38.3984 444.234 46.5078C443.625 54.6172 441.211 61.9297 436.992 68.4453C432.773 74.9609 426.891 79.5312 419.344 82.1562L436.43 94.3203C439.523 96.4297 441.023 97.9062 440.93 98.75C440.836 99.5469 439.172 100.086 435.938 100.367L421.805 101.984C421.523 102.031 421.242 102.055 420.961 102.055C419.32 102.289 418.055 102.383 417.164 102.336C416.273 102.336 415.453 102.102 414.703 101.633C414 101.164 413.109 100.367 412.031 99.2422L399.094 86.3047C399.047 89.2109 399 91.9062 398.953 94.3906C398.953 96.0781 398.93 97.8359 398.883 99.6641ZM399.094 61.9062C405.891 63.2188 411.188 62.8906 414.984 60.9219C418.828 58.9531 421.266 56.1875 422.297 52.625C423.375 49.0156 423.164 45.4766 421.664 42.0078C420.164 38.5391 417.492 35.9609 413.648 34.2734C409.805 32.5391 404.883 32.5391 398.883 34.2734C398.93 39.5234 398.977 43.5312 399.023 46.2969C399.023 48.3125 399.023 50.4688 399.023 52.7656C399.07 55.0156 399.094 58.0625 399.094 61.9062ZM380.25 5.79688C378.75 14.3281 377.836 23.2813 377.508 32.6562C377.227 42.0312 377.203 51.1016 377.438 59.8672V59.7969C377.531 58.625 377.695 57.4062 377.93 56.1406C378.164 54.875 378.492 53.7734 378.914 52.8359C379.336 51.8984 379.828 51.4297 380.391 51.4297C380.859 51.4297 381.164 51.9453 381.305 52.9766C381.492 53.9609 381.562 55.1562 381.516 56.5625C381.516 57.9688 381.469 59.2812 381.375 60.5C381.281 61.7188 381.188 62.6094 381.094 63.1719C381.094 63.3125 381.094 63.4062 381.094 63.4531C380.859 67.4844 381.305 70.2266 382.43 71.6797C383.555 73.0859 384.656 73.1094 385.734 71.75C386.859 70.3438 387.281 67.4375 387 63.0312C386.953 62.6094 386.859 61.8359 386.719 60.7109C386.344 58.4141 385.969 55.4609 385.594 51.8516C385.219 48.2422 385.125 45.0078 385.312 42.1484C385.5 39.2422 386.25 37.6953 387.562 37.5078C388.828 37.6016 389.508 38.8438 389.602 41.2344C389.695 43.625 389.602 46.4375 389.32 49.6719C389.18 51.9219 389.086 54.0547 389.039 56.0703C388.992 58.0859 389.133 59.75 389.461 61.0625C389.789 62.375 390.469 63.0312 391.5 63.0312C392.625 63.0312 393.445 62.3516 393.961 60.9922C394.523 59.5859 394.898 57.875 395.086 55.8594C395.32 53.8438 395.438 51.8281 395.438 49.8125C395.438 47.75 395.414 46.0156 395.367 44.6094C395.32 43.8125 395.297 43.2266 395.297 42.8516C395.297 41.7266 395.156 39.8516 394.875 37.2266C394.594 34.2734 394.359 31.1562 394.172 27.875C393.984 24.5937 394.102 21.8984 394.523 19.7891C394.992 18.0078 395.695 17.1875 396.633 17.3281C397.57 17.4219 398.18 18.3125 398.461 20C398.508 20.5625 398.508 21.1484 398.461 21.7578C398.461 22.2266 398.461 22.6953 398.461 23.1641C398.602 24.8047 399.07 25.8359 399.867 26.2578C400.711 26.6328 401.508 26.4922 402.258 25.8359C403.055 25.1797 403.43 24.125 403.383 22.6719C403.289 21.4531 403.078 20.1641 402.75 18.8047C402.562 18.0547 402.398 17.3047 402.258 16.5547C401.977 14.0703 402.398 12.5938 403.523 12.125C404.648 11.6094 405.727 12.1953 406.758 13.8828C407.367 15.1484 407.883 16.7187 408.305 18.5938C408.727 20.2812 409.242 21.8516 409.852 23.3047C410.461 24.7578 411.305 25.7187 412.383 26.1875C413.133 26.4219 413.766 26.1172 414.281 25.2734C414.844 24.4297 415.383 23.3984 415.898 22.1797C416.039 21.8047 416.18 21.4531 416.32 21.125C417.633 18.3594 418.852 17.1875 419.977 17.6094C421.102 17.9844 421.547 19.6016 421.312 22.4609C420.891 26.7734 420.844 30.5938 421.172 33.9219C421.5 36.2656 422.227 37.8125 423.352 38.5625C424.523 39.3125 425.484 38.5156 426.234 36.1719C427.359 32.0938 428.461 30.0312 429.539 29.9844C430.664 29.8906 431.484 31.7422 432 35.5391C432.328 38.1641 432.75 40.4844 433.266 42.5C433.781 44.4688 434.32 45.5938 434.883 45.875C435.445 46.1094 435.961 44.9609 436.43 42.4297C436.758 40.6484 437.086 39.4766 437.414 38.9141C437.789 38.3047 438.141 38.1172 438.469 38.3516C438.797 38.5391 439.078 38.9609 439.312 39.6172C439.594 40.2266 439.805 40.8594 439.945 41.5156C439.898 33.3125 437.602 25.8359 433.055 19.0859C428.883 13.4141 423.773 9.61719 417.727 7.69531C411.68 5.77344 405.258 5.32812 398.461 6.35938L396.773 6.57031L395.578 5.79688C394.688 5.51562 393.281 5.35156 391.359 5.30469C389.438 5.21094 387.422 5.21094 385.312 5.30469C383.25 5.39844 381.562 5.5625 380.25 5.79688ZM517.289 97.4141C517.383 99.3828 517.102 100.672 516.445 101.281C515.789 101.891 514.008 102.172 511.102 102.125C503.32 102.219 494.391 102.219 484.312 102.125C473.391 102.031 464.578 102.031 457.875 102.125C455.109 101.938 452.695 100.414 450.633 97.5547C448.617 94.6484 447.914 91.9062 448.523 89.3281C450.492 83.8906 453.656 78.0312 458.016 71.75C463.734 63.1719 468.844 55.5547 473.344 48.8984C477.891 42.2422 482.977 34.8125 488.602 26.6094C489.164 25.7656 489.75 24.8984 490.359 24.0078L462.727 24.8516C462.586 24.8516 462.445 24.8516 462.305 24.8516C460.336 24.9453 459.023 24.7812 458.367 24.3594C457.711 23.8906 457.383 22.4141 457.383 19.9297L457.523 5.86719C457.43 3.89844 457.711 2.60938 458.367 2C459.023 1.39062 460.781 1.10937 463.641 1.15625C470.531 1.10937 478.523 1.10937 487.617 1.15625C500.273 1.29688 510.398 1.29688 517.992 1.15625C519.773 1.20313 521.203 2.09375 522.281 3.82812C523.406 5.5625 524.133 7.57812 524.461 9.875C524.836 12.125 524.766 14.0703 524.25 15.7109C523.031 19.0391 520.289 24.1484 516.023 31.0391C511.805 37.8828 507.164 45.0781 502.102 52.625C497.039 60.1719 492.656 66.6172 488.953 71.9609C485.25 77.3516 483.352 80.1641 483.258 80.3984L511.805 80.4688C511.945 80.4688 512.086 80.4688 512.227 80.4688C514.148 80.375 515.438 80.5625 516.094 81.0312C516.75 81.5 517.078 82.9531 517.078 85.3906L517.289 97.4141ZM477.211 77.1641C478.008 77.2578 479.039 76.6719 480.305 75.4062C481.57 74.1406 482.789 72.7344 483.961 71.1875C485.133 69.5938 485.953 68.4453 486.422 67.7422C486.984 66.9453 487.523 66.1484 488.039 65.3516C496.992 52.6016 505.5 39.6875 513.562 26.6094C515.062 24.125 516.469 21.6406 517.781 19.1562C517.828 19.0156 517.898 18.8984 517.992 18.8047C518.789 17.3516 519.469 15.8516 520.031 14.3047C520.219 13.6484 520.266 12.875 520.172 11.9844C520.125 11.0469 520.031 10.25 519.891 9.59375C519.797 9.26562 519.656 8.84375 519.469 8.32812C519.281 7.76562 519.047 7.22656 518.766 6.71094C518.531 6.19531 518.273 5.84375 517.992 5.65625C509.742 5.75 501.492 5.75 493.242 5.65625C491.602 5.65625 489.961 5.65625 488.32 5.65625C480.117 5.5625 471.914 5.5625 463.711 5.65625C463.523 5.65625 463.266 5.65625 462.938 5.65625C462.609 5.65625 462.281 5.65625 461.953 5.65625C461.953 6.07812 461.906 6.78125 461.812 7.76562C461.672 9.45312 461.578 11.4688 461.531 13.8125C461.484 16.1094 461.672 18.125 462.094 19.8594C462.516 21.5469 463.336 22.2969 464.555 22.1094C465.773 21.7812 466.5 20.9609 466.734 19.6484C466.969 18.2891 467.039 16.8125 466.945 15.2188C466.852 13.7188 466.898 12.4531 467.086 11.4219C467.32 10.3438 467.977 9.85156 469.055 9.94531C469.992 10.0859 470.672 10.6484 471.094 11.6328C471.562 12.6172 471.914 13.7656 472.148 15.0781C472.477 16.4844 472.898 17.75 473.414 18.875C473.93 20 474.82 20.6328 476.086 20.7734C476.883 20.7266 477.445 20.2812 477.773 19.4375C478.102 18.5938 478.359 17.6328 478.547 16.5547C478.688 15.6641 478.875 14.8906 479.109 14.2344C479.344 13.5312 479.719 13.1094 480.234 12.9688C480.938 12.875 481.523 13.2734 481.992 14.1641C482.461 15.0078 482.906 16.0391 483.328 17.2578C483.703 18.5234 484.148 19.6719 484.664 20.7031C485.227 21.6875 485.953 22.25 486.844 22.3906C488.109 22.4375 488.859 21.875 489.094 20.7031C489.375 19.4844 489.469 18.0781 489.375 16.4844C489.328 14.8906 489.422 13.5078 489.656 12.3359C489.891 11.1172 490.617 10.4844 491.836 10.4375C492.961 10.4375 493.734 10.8828 494.156 11.7734C494.625 12.6172 494.859 13.6484 494.859 14.8672C494.906 16.0859 494.812 17.2812 494.578 18.4531C494.391 19.5781 494.18 20.4688 493.945 21.125C492.492 25.1562 490.43 29.1406 487.758 33.0781C485.836 36.0312 484.453 38.5391 483.609 40.6016C482.766 42.6641 483.188 43.9062 484.875 44.3281C486.281 44.5625 487.852 43.7891 489.586 42.0078C491.32 40.2266 492.961 38.0703 494.508 35.5391C496.055 33.0078 497.273 30.6406 498.164 28.4375C499.383 25.7656 500.414 24.9453 501.258 25.9766C502.102 27.0078 502.008 29.0938 500.977 32.2344C499.945 35.3281 497.203 38.7266 492.75 42.4297C490.5 44.1641 488.109 45.8984 485.578 47.6328C481.406 50.4922 477.891 53.1875 475.031 55.7188C472.406 58.4375 471.398 60.5469 472.008 62.0469C472.617 63.5 474.633 63.125 478.055 60.9219C479.32 59.9844 480.562 58.9766 481.781 57.8984C483.047 56.7734 484.102 55.7891 484.945 54.9453C485.742 54.2422 486.281 53.8438 486.562 53.75C486.891 53.6094 487.078 53.7031 487.125 54.0312C487.312 55.25 486.797 56.8906 485.578 58.9531C484.406 61.0156 483 63.1953 481.359 65.4922C479.344 68.3047 477.773 70.8125 476.648 73.0156C475.523 75.2188 475.711 76.6016 477.211 77.1641Z" fill="black"/>
</svg>
